<svg xmlns="http://www.w3.org/2000/svg" viewBox="0 0 64 64" width="64" height="64">
  <rect width="64" height="64" rx="14" fill="#312e81"/>
  <path d="M20 32c0-5 4-9 9-9 4 0 6 3 8 6l-3 4c-2-3-3-4-5-4-2 0-4 1-4 3s2 3 4 3c2 0 3-1 5-4l3 4c-2 3-4 6-8 6-5 0-9-4-9-9z"
        fill="none" stroke="#f0abfc" stroke-width="4" stroke-linecap="round"/>
  <path d="M44 32c0 5-4 9-9 9-4 0-6-3-8-6l3-4c2 3 3 4 5 4 2 0 4-1 4-3s-2-3-4-3c-2 0-3 1-5 4l-3-4c2-3 4-6 8-6 5 0 9 4 9 9z"
        fill="none" stroke="#818cf8" stroke-width="4" stroke-linecap="round"/>
</svg>
